classDiagram
    %% Interfaces
    class ReprodutorMusical {
        +tocar()
        +pausar()
        +selecionarMusica(musica)
    }

    class AparelhoTelefonico {
        +ligar(numero)
        +atender()
        +iniciarCorreioVoz()
    }

    class NavegadorInternet {
        +exibirPagina(url)
        +adicionarNovaAba()
        +atualizarPagina()
    }

    %% Classe iPhone
    class iPhone {
        -String modelo
        -int armazenamentoGB
        -int bateriaPorcentagem
        -String sistemaOperacional
       
      
    }

    %% Composição de componentes
    class Bateria {
        -int porcentagem
        +carregar()
        +consumir()
    }

    class Armazenamento {
        -int capacidadeGB
        -int usadoGB
        +salvarArquivo(nomeArquivo)
        +apagarArquivo(nomeArquivo)
    }

    %% Relacionamentos
    iPhone ..|> ReprodutorMusical
    iPhone ..|> AparelhoTelefonico
    iPhone ..|> NavegadorInternet

    iPhone *-- Bateria : 
    iPhone *-- Armazenamento : 

